<svg class="typst-doc" viewBox="0 0 85.16145669291339 118.72245669291338" width="85.16145669291339pt" height="118.72245669291338pt" xmlns="http://www.w3.org/2000/svg" xmlns:xlink="http://www.w3.org/1999/xlink" xmlns:h5="http://www.w3.org/1999/xhtml">
    <path class="typst-shape" fill="#ffffff" fill-rule="nonzero" d="M 0 0v 118.72246 h 85.16145 v -118.72246 Z "/>
    <g>
        <g class="typst-group" transform="matrix(1 0 0 1 14.173228346456693 14.173228346456693)">
            <g>
                <g class="typst-group">
                    <g>
                        <g class="typst-text" transform="matrix(1 0 0 -1 25.74 7.238)">
                            <use xlink:href="#g33ECB15847DF2055C7626C9EE174CAC9" x="0" y="0" fill="#000000" fill-rule="nonzero"/>
                        </g>
                        <g class="typst-group" transform="matrix(1 0 0 1 0 32.538)">
                            <g>
                                <path class="typst-shape" fill="none" stroke="#000000" stroke-width="0.75" stroke-linecap="butt" stroke-linejoin="miter" stroke-miterlimit="4" transform="matrix(1 0 0 1 28.4075 -3.3)" d="M 0 0v -18.7 "/>
                                <g class="typst-group">
                                    <g>
                                        <g class="typst-group">
                                            <g>
                                                <g class="typst-group" transform="matrix(1 0 0 1 0 25.3)">
                                                    <g>
                                                        <g class="typst-group">
                                                            <g>
                                                                <path class="typst-shape" fill="none" stroke="#000000" stroke-width="0.75" stroke-linecap="butt" stroke-linejoin="miter" stroke-miterlimit="4" d="M 0 0m 2.849 -22 l 53.966 18.7 h -56.815 Z "/>
                                                            </g>
                                                        </g>
                                                        <g class="typst-text" transform="matrix(1 0 0 -1 0 7.238)">
                                                            <use xlink:href="#g54675FD8279C007A9075568A51F7B37" x="0" y="0" fill="#000000" fill-rule="nonzero"/>
                                                        </g>
                                                        <g class="typst-group">
                                                            <g>
                                                                <g class="typst-group" transform="matrix(1 0 0 1 16.698 0)">
                                                                    <g>
                                                                        <path class="typst-shape" fill="none" stroke="#000000" stroke-width="0.75" stroke-linecap="butt" stroke-linejoin="miter" stroke-miterlimit="4" d="M 0 0m 7.2875 -22 l 32.829502 18.7 h -56.815002 Z "/>
                                                                    </g>
                                                                </g>
                                                                <g class="typst-group" transform="matrix(1 0 0 1 16.698 0)">
                                                                    <g>
                                                                        <g class="typst-group">
                                                                            <g>
                                                                                <g class="typst-text" transform="matrix(1 0 0 -1 0 7.238)">
                                                                                    <use xlink:href="#g4B89028CF664E1EF1FA3FD8F990833CC" x="0" y="0" fill="#000000" fill-rule="nonzero"/>
                                                                                    <use xlink:href="#g9CFD982A7EF6925B03559430420E463D" x="3.41" y="0" fill="#000000" fill-rule="nonzero"/>
                                                                                    <use xlink:href="#g9CFD982A7EF6925B03559430420E463D" x="9.030999999999999" y="0" fill="#000000" fill-rule="nonzero"/>
                                                                                </g>
                                                                                <g class="typst-group" transform="matrix(1 0 0 1 7.2875 32.538)">
                                                                                    <g/>
                                                                                </g>
                                                                            </g>
                                                                        </g>
                                                                    </g>
                                                                </g>
                                                            </g>
                                                        </g>
                                                        <g class="typst-group">
                                                            <g>
                                                                <g class="typst-group" transform="matrix(1 0 0 1 42.273 0)">
                                                                    <g>
                                                                        <path class="typst-shape" fill="none" stroke="#000000" stroke-width="0.75" stroke-linecap="butt" stroke-linejoin="miter" stroke-miterlimit="4" d="M 0 0m 7.271 -22 l 7.271 18.7 h -56.815 Z "/>
                                                                    </g>
                                                                </g>
                                                                <g class="typst-text" transform="matrix(1 0 0 -1 42.273 7.238)">
                                                                    <use xlink:href="#gD95B4AF244436862CB989BEB34BED0A2" x="0" y="0" fill="#000000" fill-rule="nonzero"/>
                                                                    <use xlink:href="#gECFF754D7B3D24CA2147247AFEC52B43" x="5.423" y="0" fill="#000000" fill-rule="nonzero"/>
                                                                    <use xlink:href="#g19B373248AE229D68CE91FF3267DF00C" x="10.45" y="0" fill="#000000" fill-rule="nonzero"/>
                                                                </g>
                                                            </g>
                                                        </g>
                                                    </g>
                                                </g>
                                            </g>
                                        </g>
                                    </g>
                                </g>
                            </g>
                        </g>
                    </g>
                </g>
            </g>
        </g>
    </g>
    <defs id="glyph">
        <symbol id="g33ECB15847DF2055C7626C9EE174CAC9" overflow="visible">
            <path d="M 0 0m 4.345 6.941 c -0.6379998 0.08799982 -0.6159997 0.29699993 -1.6939998 0.29699993 c -1.1110001 0 -2.0900002 -0.737 -2.0900002 -1.9029999 c 0 -1.1550002 0.957 -1.6830001 1.9250001 -2.0570002 c 0.65999985 -0.25299978 1.474 -0.5609999 1.474 -1.6389999 c 0 -0.8909999 -0.49500012 -1.3529999 -1.375 -1.3529999 c -1.023 0 -1.6830001 0.473 -1.9250001 1.562 c -0.14299995 0.04399991 -0.25299996 0.021999955 -0.36299998 -0.03300011 c 0.044 -0.84699994 0.088 -1.1329999 0.22000003 -1.6719999 c 0.693 0 1.0009999 -0.25300002 1.98 -0.25300002 c 0.49500012 0 0.96799994 0.121 1.3529999 0.36299998 c 0.638 0.396 1.0339999 1.0669999 1.0339999 1.7709999 c 0 1.1660001 -0.87999964 1.6830001 -1.7819998 2.024 c -0.6600001 0.2420001 -1.76 0.6600003 -1.76 1.5840001 c 0 0.6160002 0.561 1.2319999 1.21 1.2319999 c 1.0669999 0 1.408 -0.6819997 1.6279998 -1.408 c 0.12100029 -0.021999836 0.26399994 -0.01099968 0.36299992 0.065999985 c -0.043999672 0.52800035 -0.08799982 0.83599997 -0.19799995 1.4190001 Z "/>
        </symbol>
        <symbol id="g54675FD8279C007A9075568A51F7B37" overflow="visible">
            <path d="M 0 0m 2.849 6.523 l 1.1329999 -2.7169998 h 0.4949999 l -1.3859997 3.344 h -0.46200013 l -1.397 -3.344 h 0.495 Z "/>
        </symbol>
        <symbol id="g4B89028CF664E1EF1FA3FD8F990833CC" overflow="visible">
            <path d="M 0 0m 1.925 1.342 v 2.948 h 1.023 c 0.09899998 0 0.25300002 0.04400015 0.25300002 0.14300013 v 0.21999979 c 0 0.04400015 -0.032999992 0.065999985 -0.08800006 0.065999985 h -1.188 v 0.62700033 c 0 1.6939998 0.50600004 1.9579997 0.86899996 1.9579997 c 0.33000016 0 0.50600004 -0.13199997 0.6600001 -0.5169997 c 0.08800006 -0.19800043 0.20899987 -0.35200024 0.44000006 -0.35200024 c 0.1869998 0 0.45099974 0.23099995 0.45099974 0.4510002 c 0 0.1869998 -0.12099981 0.38499975 -0.35199976 0.5609999 c -0.286 0.19799995 -0.572 0.23099995 -0.99 0.23099995 c -0.924 0 -1.947 -0.803 -1.947 -2.519 v -0.44000006 h -0.561 c -0.19800001 0 -0.25300002 -0.13199997 -0.25300002 -0.21999979 v -0.14300013 c 0 -0.05499983 0.0109999925 -0.065999985 0.054999992 -0.065999985 h 0.759 v -2.948 c 0 -0.913 -0.176 -0.957 -0.77 -1.001 c -0.066000015 -0.065999985 -0.066000015 -0.297 0 -0.36299998 c 0.385 0.011 0.77 0.022 1.21 0.022 c 0.43999994 0 0.96799994 -0.011 1.3529999 -0.022 c 0.065999985 0.066 0.065999985 0.297 0 0.36299998 c -0.85800004 0.044 -0.924 0.088 -0.924 1.001 Z "/>
        </symbol>
        <symbol id="g9CFD982A7EF6925B03559430420E463D" overflow="visible">
            <path d="M 0 0m 0.451 2.2549999 c 0 -1.1219999 0.748 -2.3649998 2.31 -2.3649998 c 0.704 0 1.2430003 0.25300002 1.6169999 0.616 c 0.49500036 0.48400003 0.71500015 1.177 0.71500015 1.848 c 0 1.1439998 -0.62699986 2.475 -2.31 2.475 c -0.7260001 0 -1.32 -0.29699993 -1.727 -0.77 c -0.39600003 -0.47300005 -0.605 -1.1110001 -0.605 -1.8040001 Z m 2.167 2.189 c 0.94599986 0 1.5289998 -0.8579998 1.5289998 -2.4419997 c 0 -1.3860002 -0.7149999 -1.7270001 -1.2319999 -1.7270001 c -1.1439999 0 -1.518 1.386 -1.518 2.2329998 c 0 0.957 0.23100007 1.9359999 1.2210001 1.9359999 Z "/>
        </symbol>
        <symbol id="gD95B4AF244436862CB989BEB34BED0A2" overflow="visible">
            <path d="M 0 0m 1.837 4.334 c -0.065999985 -0.065999985 -0.110000014 -0.04400015 -0.110000014 0.05499983 v 2.0240002 c 0 0.7149997 0.04400003 1.1549997 0.04400003 1.1549997 c 0 0.07700014 -0.04400003 0.11000013 -0.143 0.11000013 c -0.27499998 -0.11000013 -1.1 -0.26399994 -1.54 -0.29699993 c -0.022 -0.0880003 0 -0.26399994 0.066 -0.32999992 c 0.033000007 0 0.066 0 0.09899999 0 c 0.484 -0.032999992 0.605 -0.032999992 0.605 -0.90199995 v -5.368 c 0 -0.42900002 -0.010999978 -0.62700003 -0.04399997 -0.781 c 0.055000007 -0.088 0.110000014 -0.132 0.24199998 -0.132 c 0.065999985 0.066 0.176 0.16499999 0.26399994 0.264 c 0.110000014 0.132 0.17600012 0.132 0.29700005 0.032999992 c 0.25300002 -0.20899999 0.58300006 -0.27499998 0.96800005 -0.27499998 c 1.122 0 2.4309998 1.023 2.4309998 2.7719998 c 0 1.3420002 -0.9899998 2.167 -1.9469998 2.167 c -0.47300005 0 -0.89100003 -0.1869998 -1.232 -0.4949999 Z m 0.07700002 -0.34100008 c 0.286 0.25299978 0.61599994 0.35199976 0.93499994 0.35199976 c 0.671 0 1.2210002 -0.8139999 1.2210002 -1.8809998 c 0 -1.254 -0.5060003 -2.2 -1.5510001 -2.2 c -0.34100008 0 -0.572 0.24199998 -0.79200006 0.517 v 2.75 c 0 0.23100019 0.04400003 0.34100008 0.18700004 0.46200013 Z "/>
        </symbol>
        <symbol id="gECFF754D7B3D24CA2147247AFEC52B43" overflow="visible">
            <path d="M 0 0m 3.223 0.528 c 0.065999985 -0.341 0.18700004 -0.638 0.737 -0.638 c 0.41799974 0 0.8140001 0.187 1.0450001 0.407 c -0.022000313 0.132 -0.065999985 0.231 -0.18700027 0.297 c -0.076999664 -0.065999985 -0.26399994 -0.176 -0.40700006 -0.176 c -0.31899977 0 -0.32999992 0.42900002 -0.32999992 0.93500006 v 1.617 c 0 1.562 -0.8579998 1.859 -1.6609998 1.859 c -0.90200007 0 -1.815 -0.59399986 -1.815 -1.221 c 0 -0.26400018 0.13199997 -0.39600015 0.385 -0.39600015 c 0.319 0 0.51699996 0.23100019 0.51699996 0.37400007 c 0 0.0769999 -0.010999918 0.15400004 -0.032999992 0.19799995 c -0.011000037 0.032999992 -0.021999955 0.09899998 -0.021999955 0.22000027 c 0 0.3409996 0.462 0.4619999 0.88 0.4619999 c 0.37400007 0 0.89100003 -0.18700027 0.89100003 -1.4300001 c 0 -0.07700014 -0.032999992 -0.12100005 -0.065999985 -0.13199997 l -0.9460001 -0.23099995 c -1.056 -0.26400018 -1.8149999 -0.8470001 -1.8149999 -1.5950001 c 0 -0.90199995 0.61599994 -1.188 1.3859999 -1.188 c 0.3850001 0 0.71500003 0.088 1.199 0.462 l 0.22000003 0.176 Z m 0 2.0349998 v -1.452 c 0 -0.14299995 -0.065999985 -0.21999997 -0.15400004 -0.28599995 c -0.286 -0.231 -0.6600001 -0.484 -0.96799994 -0.484 c -0.5500001 0 -0.79200006 0.44000003 -0.79200006 0.781 c 0 0.495 0.23099995 1.0009999 1.0450001 1.21 Z "/>
        </symbol>
        <symbol id="g19B373248AE229D68CE91FF3267DF00C" overflow="visible">
            <path d="M 0 0m 1.936 3.938 c -0.021999955 0.43999982 -0.032999992 0.7260001 -0.08799994 0.8360002 c -0.022000074 0.05499983 -0.04400003 0.08799982 -0.13200009 0.08799982 c -0.30799997 -0.12099981 -0.594 -0.21999979 -1.3529999 -0.31900024 c -0.022000015 -0.065999985 0 -0.24199963 0.021999985 -0.3079996 c 0.594 -0.055000305 0.71500003 -0.11000013 0.71500003 -0.74800014 v -2.145 c 0 -0.913 -0.13200003 -0.957 -0.814 -1.001 c -0.066000015 -0.065999985 -0.066000015 -0.297 0 -0.36299998 c 0.385 0.011 0.814 0.022 1.254 0.022 c 0.44000006 0 0.9460001 -0.011 1.3310001 -0.022 c 0.065999985 0.066 0.065999985 0.297 0 0.36299998 c -0.77 0.055000007 -0.90200007 0.088 -0.90200007 1.001 v 1.529 c 0 0.286 0.13200009 0.53900003 0.26400006 0.737 c 0.12100005 0.17599988 0.37399983 0.5389998 0.50600004 0.5389998 c 0.09899998 0 0.19799995 -0.021999836 0.286 -0.14299965 c 0.0769999 -0.11000013 0.20899987 -0.25300026 0.3959999 -0.25300026 c 0.26399994 0 0.51699996 0.2750001 0.51699996 0.5500002 c 0 0.20899963 -0.19799995 0.5279999 -0.6600001 0.5279999 c -0.51699996 0 -0.96799994 -0.4840002 -1.221 -0.9130001 c -0.065999985 -0.12099981 -0.12099993 -0.032999992 -0.12099993 0.022000074 Z "/>
        </symbol>
    </defs>
</svg>
