<svg class="typst-doc" viewBox="0 0 104.70845669291339 301.8504566929134" width="104.70845669291339pt" height="301.8504566929134pt" xmlns="http://www.w3.org/2000/svg" xmlns:xlink="http://www.w3.org/1999/xlink" xmlns:h5="http://www.w3.org/1999/xhtml">
    <path class="typst-shape" fill="#ffffff" fill-rule="nonzero" d="M 0 0v 301.85046 h 104.70846 v -301.85046 Z "/>
    <g>
        <g class="typst-group" transform="matrix(1 0 0 1 14.173228346456693 14.173228346456693)">
            <g>
                <g class="typst-group">
                    <g>
                        <g class="typst-text" transform="matrix(1 0 0 -1 35.5135 7.238)">
                            <use xlink:href="#g33ECB15847DF2055C7626C9EE174CAC9" x="0" y="0" fill="#000000" fill-rule="nonzero"/>
                        </g>
                        <g class="typst-group" transform="matrix(1 0 0 1 0 32.538)">
                            <g>
                                <path class="typst-shape" fill="none" stroke="#000000" stroke-width="0.75" stroke-linecap="butt" stroke-linejoin="miter" stroke-miterlimit="4" transform="matrix(1 0 0 1 9.878 -3.3)" d="M 0 0l 28.303 -18.7 "/>
                                <g class="typst-group">
                                    <g>
                                        <g class="typst-group">
                                            <g>
                                                <g class="typst-text" transform="matrix(1 0 0 -1 3.0580000000000007 7.238)">
                                                    <use xlink:href="#gC89500CB5587E893058B875B79DF9A7" x="0" y="0" fill="#000000" fill-rule="nonzero"/>
                                                    <use xlink:href="#g9ADB02DC177E6143ECAB98EC27EF1649" x="7.688999999999999" y="0" fill="#000000" fill-rule="nonzero"/>
                                                </g>
                                                <g class="typst-group" transform="matrix(1 0 0 1 0 32.538)">
                                                    <g>
                                                        <path class="typst-shape" fill="none" stroke="#000000" stroke-width="0.75" stroke-linecap="butt" stroke-linejoin="miter" stroke-miterlimit="4" transform="matrix(1 0 0 1 9.878 -3.3)" d="M 0 0v -18.7 "/>
                                                        <g class="typst-group">
                                                            <g>
                                                                <g class="typst-group">
                                                                    <g>
                                                                        <g class="typst-text" transform="matrix(1 0 0 -1 0 7.238)">
                                                                            <use xlink:href="#gF2F2FEB472B417475500682CC41C438C" x="0" y="0" fill="#000000" fill-rule="nonzero"/>
                                                                            <use xlink:href="#gDFE5F3DA4EC55409D93A4F712A02872B" x="6.567" y="0" fill="#000000" fill-rule="nonzero"/>
                                                                            <use xlink:href="#g80723B9C0A918C3A8709DE0BC252F54C" x="12.485" y="0" fill="#000000" fill-rule="nonzero"/>
                                                                            <use xlink:href="#g9533FE3887B531C38C1C4562CDFC4009" x="15.466" y="0" fill="#000000" fill-rule="nonzero"/>
                                                                        </g>
                                                                        <g class="typst-group" transform="matrix(1 0 0 1 9.878 32.538)">
                                                                            <g/>
                                                                        </g>
                                                                    </g>
                                                                </g>
                                                            </g>
                                                        </g>
                                                    </g>
                                                </g>
                                            </g>
                                        </g>
                                    </g>
                                </g>
                                <g class="typst-group">
                                    <g>
                                        <path class="typst-shape" fill="none" stroke="#000000" stroke-width="0.75" stroke-linecap="butt" stroke-linejoin="miter" stroke-miterlimit="4" transform="matrix(1 0 0 1 53.559000000000005 -3.3)" d="M 0 0l -15.378 -18.7 "/>
                                        <g class="typst-group" transform="matrix(1 0 0 1 30.756 0)">
                                            <g>
                                                <g class="typst-group">
                                                    <g>
                                                        <g class="typst-text" transform="matrix(1 0 0 -1 16.241500000000002 7.238)">
                                                            <use xlink:href="#gFEB2F9519656D556FF30D38538E0F730" x="0" y="0" fill="#000000" fill-rule="nonzero"/>
                                                            <use xlink:href="#g9ADB02DC177E6143ECAB98EC27EF1649" x="7.172000000000001" y="0" fill="#000000" fill-rule="nonzero"/>
                                                        </g>
                                                        <g class="typst-group" transform="matrix(1 0 0 1 0 32.538)">
                                                            <g>
                                                                <path class="typst-shape" fill="none" stroke="#000000" stroke-width="0.75" stroke-linecap="butt" stroke-linejoin="miter" stroke-miterlimit="4" transform="matrix(1 0 0 1 3.6355000000000004 -3.3)" d="M 0 0l 19.1675 -18.7 "/>
                                                                <g class="typst-group">
                                                                    <g>
                                                                        <g class="typst-group">
                                                                            <g>
                                                                                <g class="typst-text" transform="matrix(1 0 0 -1 0.04950000000000036 7.238)">
                                                                                    <use xlink:href="#gFEB2F9519656D556FF30D38538E0F730" x="0" y="0" fill="#000000" fill-rule="nonzero"/>
                                                                                </g>
                                                                                <g class="typst-group" transform="matrix(1 0 0 1 0 32.538)">
                                                                                    <g>
                                                                                        <path class="typst-shape" fill="none" stroke="#000000" stroke-width="0.75" stroke-linecap="butt" stroke-linejoin="miter" stroke-miterlimit="4" transform="matrix(1 0 0 1 3.6355000000000004 -3.3)" d="M 0 0v -18.7 "/>
                                                                                        <g class="typst-group">
                                                                                            <g>
                                                                                                <g class="typst-group">
                                                                                                    <g>
                                                                                                        <g class="typst-text" transform="matrix(1 0 0 -1 0 7.238)">
                                                                                                            <use xlink:href="#g80723B9C0A918C3A8709DE0BC252F54C" x="0" y="0" fill="#000000" fill-rule="nonzero"/>
                                                                                                            <use xlink:href="#g9533FE3887B531C38C1C4562CDFC4009" x="2.9810000000000003" y="0" fill="#000000" fill-rule="nonzero"/>
                                                                                                        </g>
                                                                                                        <g class="typst-group" transform="matrix(1 0 0 1 3.6355000000000004 32.538)">
                                                                                                            <g/>
                                                                                                        </g>
                                                                                                    </g>
                                                                                                </g>
                                                                                            </g>
                                                                                        </g>
                                                                                    </g>
                                                                                </g>
                                                                            </g>
                                                                        </g>
                                                                    </g>
                                                                </g>
                                                                <g class="typst-group">
                                                                    <g>
                                                                        <path class="typst-shape" fill="none" stroke="#000000" stroke-width="0.75" stroke-linecap="butt" stroke-linejoin="miter" stroke-miterlimit="4" transform="matrix(1 0 0 1 31.938500000000005 -3.3)" d="M 0 0l -9.1355 -18.7 "/>
                                                                        <g class="typst-group" transform="matrix(1 0 0 1 18.271000000000004 0)">
                                                                            <g>
                                                                                <g class="typst-group">
                                                                                    <g>
                                                                                        <g class="typst-text" transform="matrix(1 0 0 -1 6.8475 7.238)">
                                                                                            <use xlink:href="#gC89500CB5587E893058B875B79DF9A7" x="0" y="0" fill="#000000" fill-rule="nonzero"/>
                                                                                            <use xlink:href="#g9ADB02DC177E6143ECAB98EC27EF1649" x="7.688999999999999" y="0" fill="#000000" fill-rule="nonzero"/>
                                                                                        </g>
                                                                                        <g class="typst-group" transform="matrix(1 0 0 1 0 32.538)">
                                                                                            <g>
                                                                                                <g class="typst-group">
                                                                                                    <g>
                                                                                                        <path class="typst-shape" fill="none" stroke="#000000" stroke-width="0.75" stroke-linecap="butt" stroke-linejoin="miter" stroke-miterlimit="4" d="M 0 0m 13.6675 -22 l 13.6675 18.7 h -27.335 Z "/>
                                                                                                    </g>
                                                                                                </g>
                                                                                                <g class="typst-group">
                                                                                                    <g>
                                                                                                        <g class="typst-group">
                                                                                                            <g>
                                                                                                                <g class="typst-text" transform="matrix(1 0 0 -1 0 7.238)">
                                                                                                                    <use xlink:href="#gECFF754D7B3D24CA2147247AFEC52B43" x="0" y="0" fill="#000000" fill-rule="nonzero"/>
                                                                                                                    <use xlink:href="#g6ACFF760A35DA6D4BC5F52E32B96F2BE" x="7.777" y="0" fill="#000000" fill-rule="nonzero"/>
                                                                                                                    <use xlink:href="#gE8B08BB0E494C01E08CB3EE0FE93D76A" x="15.994" y="0" fill="#000000" fill-rule="nonzero"/>
                                                                                                                    <use xlink:href="#gC1A56354AB16CA354F140BD2C6EDE55" x="21.835" y="0" fill="#000000" fill-rule="nonzero"/>
                                                                                                                </g>
                                                                                                                <g class="typst-group" transform="matrix(1 0 0 1 13.6675 32.538)">
                                                                                                                    <g/>
                                                                                                                </g>
                                                                                                            </g>
                                                                                                        </g>
                                                                                                    </g>
                                                                                                </g>
                                                                                            </g>
                                                                                        </g>
                                                                                    </g>
                                                                                </g>
                                                                            </g>
                                                                        </g>
                                                                    </g>
                                                                </g>
                                                            </g>
                                                        </g>
                                                    </g>
                                                </g>
                                            </g>
                                        </g>
                                    </g>
                                </g>
                            </g>
                        </g>
                    </g>
                </g>
            </g>
        </g>
        <g class="typst-group" transform="matrix(1 0 0 1 14.173228346456693 157.52522834645671)">
            <g>
                <g class="typst-group">
                    <g>
                        <g class="typst-text" transform="matrix(1 0 0 -1 35.5135 7.238)">
                            <use xlink:href="#g33ECB15847DF2055C7626C9EE174CAC9" x="0" y="0" fill="#000000" fill-rule="nonzero"/>
                        </g>
                        <g class="typst-group" transform="matrix(1 0 0 1 0 32.538)">
                            <g>
                                <path class="typst-shape" fill="none" stroke="#000000" stroke-width="0.75" stroke-linecap="butt" stroke-linejoin="miter" stroke-miterlimit="4" transform="matrix(1 0 0 1 9.878 -3.3)" d="M 0 0l 28.303 -18.7 "/>
                                <g class="typst-group">
                                    <g>
                                        <g class="typst-group">
                                            <g>
                                                <g class="typst-text" transform="matrix(1 0 0 -1 3.0580000000000007 7.238)">
                                                    <use xlink:href="#gC89500CB5587E893058B875B79DF9A7" x="0" y="0" fill="#000000" fill-rule="nonzero"/>
                                                    <use xlink:href="#g9ADB02DC177E6143ECAB98EC27EF1649" x="7.688999999999999" y="0" fill="#000000" fill-rule="nonzero"/>
                                                </g>
                                                <g class="typst-group" transform="matrix(1 0 0 1 0 32.538)">
                                                    <g>
                                                        <path class="typst-shape" fill="none" stroke="#000000" stroke-width="0.75" stroke-linecap="butt" stroke-linejoin="miter" stroke-miterlimit="4" transform="matrix(1 0 0 1 9.878 -3.3)" d="M 0 0v -18.7 "/>
                                                        <g class="typst-group">
                                                            <g>
                                                                <g class="typst-group">
                                                                    <g>
                                                                        <g class="typst-text" transform="matrix(1 0 0 -1 0 7.238)">
                                                                            <use xlink:href="#gF2F2FEB472B417475500682CC41C438C" x="0" y="0" fill="#000000" fill-rule="nonzero"/>
                                                                            <use xlink:href="#gDFE5F3DA4EC55409D93A4F712A02872B" x="6.567" y="0" fill="#000000" fill-rule="nonzero"/>
                                                                            <use xlink:href="#g80723B9C0A918C3A8709DE0BC252F54C" x="12.485" y="0" fill="#000000" fill-rule="nonzero"/>
                                                                            <use xlink:href="#g9533FE3887B531C38C1C4562CDFC4009" x="15.466" y="0" fill="#000000" fill-rule="nonzero"/>
                                                                        </g>
                                                                        <g class="typst-group" transform="matrix(1 0 0 1 9.878 32.538)">
                                                                            <g/>
                                                                        </g>
                                                                    </g>
                                                                </g>
                                                            </g>
                                                        </g>
                                                    </g>
                                                </g>
                                            </g>
                                        </g>
                                    </g>
                                </g>
                                <g class="typst-group">
                                    <g>
                                        <path class="typst-shape" fill="none" stroke="#000000" stroke-width="0.75" stroke-linecap="butt" stroke-linejoin="miter" stroke-miterlimit="4" transform="matrix(1 0 0 1 53.559000000000005 -3.3)" d="M 0 0l -15.378 -18.7 "/>
                                        <g class="typst-group" transform="matrix(1 0 0 1 30.756 0)">
                                            <g>
                                                <g class="typst-group">
                                                    <g>
                                                        <g class="typst-text" transform="matrix(1 0 0 -1 16.241500000000002 7.238)">
                                                            <use xlink:href="#gFEB2F9519656D556FF30D38538E0F730" x="0" y="0" fill="#000000" fill-rule="nonzero"/>
                                                            <use xlink:href="#g9ADB02DC177E6143ECAB98EC27EF1649" x="7.172000000000001" y="0" fill="#000000" fill-rule="nonzero"/>
                                                        </g>
                                                        <g class="typst-group" transform="matrix(1 0 0 1 0 32.538)">
                                                            <g>
                                                                <path class="typst-shape" fill="none" stroke="#000000" stroke-width="0.75" stroke-linecap="butt" stroke-linejoin="miter" stroke-miterlimit="4" transform="matrix(1 0 0 1 3.6355000000000004 -3.3)" d="M 0 0l 19.1675 -18.7 "/>
                                                                <g class="typst-group">
                                                                    <g>
                                                                        <g class="typst-group">
                                                                            <g>
                                                                                <g class="typst-text" transform="matrix(1 0 0 -1 0.04950000000000036 7.238)">
                                                                                    <use xlink:href="#gFEB2F9519656D556FF30D38538E0F730" x="0" y="0" fill="#000000" fill-rule="nonzero"/>
                                                                                </g>
                                                                                <g class="typst-group" transform="matrix(1 0 0 1 0 32.538)">
                                                                                    <g>
                                                                                        <path class="typst-shape" fill="none" stroke="#000000" stroke-width="0.75" stroke-linecap="butt" stroke-linejoin="miter" stroke-miterlimit="4" transform="matrix(1 0 0 1 3.6355000000000004 -3.3)" d="M 0 0v -18.7 "/>
                                                                                        <g class="typst-group">
                                                                                            <g>
                                                                                                <g class="typst-group">
                                                                                                    <g>
                                                                                                        <g class="typst-text" transform="matrix(1 0 0 -1 0 7.238)">
                                                                                                            <use xlink:href="#g80723B9C0A918C3A8709DE0BC252F54C" x="0" y="0" fill="#000000" fill-rule="nonzero"/>
                                                                                                            <use xlink:href="#g9533FE3887B531C38C1C4562CDFC4009" x="2.9810000000000003" y="0" fill="#000000" fill-rule="nonzero"/>
                                                                                                        </g>
                                                                                                        <g class="typst-group" transform="matrix(1 0 0 1 3.6355000000000004 32.538)">
                                                                                                            <g/>
                                                                                                        </g>
                                                                                                    </g>
                                                                                                </g>
                                                                                            </g>
                                                                                        </g>
                                                                                    </g>
                                                                                </g>
                                                                            </g>
                                                                        </g>
                                                                    </g>
                                                                </g>
                                                                <g class="typst-group">
                                                                    <g>
                                                                        <path class="typst-shape" fill="none" stroke="#000000" stroke-width="0.75" stroke-linecap="butt" stroke-linejoin="miter" stroke-miterlimit="4" transform="matrix(1 0 0 1 31.938500000000005 -3.3)" d="M 0 0l -9.1355 -18.7 "/>
                                                                        <g class="typst-group" transform="matrix(1 0 0 1 18.271000000000004 0)">
                                                                            <g>
                                                                                <g class="typst-group">
                                                                                    <g>
                                                                                        <g class="typst-text" transform="matrix(1 0 0 -1 6.8475 7.238)">
                                                                                            <use xlink:href="#gC89500CB5587E893058B875B79DF9A7" x="0" y="0" fill="#000000" fill-rule="nonzero"/>
                                                                                            <use xlink:href="#g9ADB02DC177E6143ECAB98EC27EF1649" x="7.688999999999999" y="0" fill="#000000" fill-rule="nonzero"/>
                                                                                        </g>
                                                                                        <g class="typst-group" transform="matrix(1 0 0 1 0 32.538)">
                                                                                            <g>
                                                                                                <g class="typst-group">
                                                                                                    <g>
                                                                                                        <path class="typst-shape" fill="none" stroke="#000000" stroke-width="0.75" stroke-linecap="butt" stroke-linejoin="miter" stroke-miterlimit="4" d="M 0 0m 13.6675 -22 l 13.6675 18.7 h -27.335 Z "/>
                                                                                                    </g>
                                                                                                </g>
                                                                                                <g class="typst-group">
                                                                                                    <g>
                                                                                                        <g class="typst-group">
                                                                                                            <g>
                                                                                                                <g class="typst-text" transform="matrix(1 0 0 -1 0 7.238)">
                                                                                                                    <use xlink:href="#gECFF754D7B3D24CA2147247AFEC52B43" x="0" y="0" fill="#000000" fill-rule="nonzero"/>
                                                                                                                    <use xlink:href="#g6ACFF760A35DA6D4BC5F52E32B96F2BE" x="7.777" y="0" fill="#000000" fill-rule="nonzero"/>
                                                                                                                    <use xlink:href="#gE8B08BB0E494C01E08CB3EE0FE93D76A" x="15.994" y="0" fill="#000000" fill-rule="nonzero"/>
                                                                                                                    <use xlink:href="#gC1A56354AB16CA354F140BD2C6EDE55" x="21.835" y="0" fill="#000000" fill-rule="nonzero"/>
                                                                                                                </g>
                                                                                                                <g class="typst-group" transform="matrix(1 0 0 1 13.6675 32.538)">
                                                                                                                    <g/>
                                                                                                                </g>
                                                                                                            </g>
                                                                                                        </g>
                                                                                                    </g>
                                                                                                </g>
                                                                                            </g>
                                                                                        </g>
                                                                                    </g>
                                                                                </g>
                                                                            </g>
                                                                        </g>
                                                                    </g>
                                                                </g>
                                                            </g>
                                                        </g>
                                                    </g>
                                                </g>
                                            </g>
                                        </g>
                                    </g>
                                </g>
                            </g>
                        </g>
                    </g>
                </g>
            </g>
        </g>
    </g>
    <defs id="glyph">
        <symbol id="g33ECB15847DF2055C7626C9EE174CAC9" overflow="visible">
            <path d="M 0 0m 4.345 6.941 c -0.6379998 0.08799982 -0.6159997 0.29699993 -1.6939998 0.29699993 c -1.1110001 0 -2.0900002 -0.737 -2.0900002 -1.9029999 c 0 -1.1550002 0.957 -1.6830001 1.9250001 -2.0570002 c 0.65999985 -0.25299978 1.474 -0.5609999 1.474 -1.6389999 c 0 -0.8909999 -0.49500012 -1.3529999 -1.375 -1.3529999 c -1.023 0 -1.6830001 0.473 -1.9250001 1.562 c -0.14299995 0.04399991 -0.25299996 0.021999955 -0.36299998 -0.03300011 c 0.044 -0.84699994 0.088 -1.1329999 0.22000003 -1.6719999 c 0.693 0 1.0009999 -0.25300002 1.98 -0.25300002 c 0.49500012 0 0.96799994 0.121 1.3529999 0.36299998 c 0.638 0.396 1.0339999 1.0669999 1.0339999 1.7709999 c 0 1.1660001 -0.87999964 1.6830001 -1.7819998 2.024 c -0.6600001 0.2420001 -1.76 0.6600003 -1.76 1.5840001 c 0 0.6160002 0.561 1.2319999 1.21 1.2319999 c 1.0669999 0 1.408 -0.6819997 1.6279998 -1.408 c 0.12100029 -0.021999836 0.26399994 -0.01099968 0.36299992 0.065999985 c -0.043999672 0.52800035 -0.08799982 0.83599997 -0.19799995 1.4190001 Z "/>
        </symbol>
        <symbol id="gC89500CB5587E893058B875B79DF9A7" overflow="visible">
            <path d="M 0 0m 6.116 5.632 v -3.597 c 0 -0.20900011 0 -0.33000004 -0.07700014 -0.33000004 c -0.04400015 0 -0.20900011 0.19799995 -0.5279999 0.6049999 l -3.7730002 4.785 l -1.485 0.022000313 c -0.065999985 -0.065999985 -0.065999985 -0.29699993 0 -0.36299992 c 0.47300002 -0.032999992 0.803 -0.41800022 0.86899996 -0.704 v -4.5870004 c 0 -0.979 -0.18699998 -1.045 -0.957 -1.122 c -0.06599999 -0.065999985 -0.06599999 -0.297 0 -0.36299998 c 0.47300002 0.011 0.96800005 0.022 1.232 0.022 c 0.25300002 0 0.75899994 -0.011 1.2210001 -0.022 c 0.065999985 0.066 0.065999985 0.297 0 0.36299998 c -0.77 0.07699999 -0.957 0.12100002 -0.957 1.122 v 3.3660002 c 0 0.37400007 0 0.53900003 0.08799994 0.53900003 c 0.065999985 0 0.18700004 -0.12100029 0.37399995 -0.36299992 l 3.839 -4.8510003 c 0.12100029 -0.16499999 0.26399994 -0.264 0.44000006 -0.264 c 0.1539998 0 0.25299978 0.132 0.25299978 0.34100002 v 5.401 c 0 0.9790001 0.18700027 1.0450001 0.95700026 1.1220002 c 0.065999985 0.065999985 0.065999985 0.29699993 0 0.36299992 c -0.4510002 -0.011000156 -0.96799994 -0.022000313 -1.2319999 -0.022000313 c -0.23099995 0 -0.737 0.011000156 -1.2210002 0.022000313 c -0.065999985 -0.065999985 -0.065999985 -0.29699993 0 -0.36299992 c 0.77 -0.07700014 0.95700026 -0.12100029 0.95700026 -1.1220002 Z "/>
        </symbol>
        <symbol id="g9ADB02DC177E6143ECAB98EC27EF1649" overflow="visible">
            <path d="M 0 0m 1.144 5.753 v -4.411 c 0 -0.913 -0.18700004 -0.968 -0.957 -1.001 c -0.06600001 -0.065999985 -0.06600001 -0.297 0 -0.36299998 c 0.49499997 0.011 1.0339999 0.022 1.43 0.022 c 0.3850001 0 1.034 -0.011 1.584 -0.022 c 0.065999985 0.066 0.065999985 0.297 0 0.36299998 c -0.85800004 0.044 -1.122 0.088 -1.122 1.001 v 1.8699999 c 0.2420001 -0.0769999 0.50600004 -0.109999895 0.89100003 -0.109999895 c 2.002 0 2.607 1.3089998 2.607 2.2440002 c 0 0.6489997 -0.42900038 1.8259997 -2.4640002 1.8259997 c -0.41799998 0 -1.0669999 -0.07700014 -1.507 -0.07700014 c -0.40699995 0 -0.979 0.011000156 -1.4189999 0.022000313 c -0.06600001 -0.065999985 -0.06600001 -0.29699993 0 -0.36299992 c 0.77 -0.032999992 0.957 -0.0880003 0.957 -1.0010004 Z m 0.93499994 0.34100008 c 0 0.31900024 0.16499996 0.704 0.957 0.704 c 0.75900006 0 1.5179999 -0.25299978 1.5179999 -1.6500001 c 0 -1.1879997 -0.572 -1.6719997 -1.6389999 -1.6719997 c -0.2750001 0 -0.7149999 0.021999836 -0.83599997 0.05499983 Z "/>
        </symbol>
        <symbol id="gF2F2FEB472B417475500682CC41C438C" overflow="visible">
            <path d="M 0 0m 3.85 1.342 v 4.202 c 0 0.704 0.11000013 1.1219997 0.50600004 1.1219997 h 0.2420001 c 0.8249998 0 1.342 -0.28599977 1.5289998 -1.1329999 c 0.12100029 0 0.2750001 0.011000156 0.37400007 0.05499983 c -0.07700014 0.50600004 -0.13199997 1.0669999 -0.14300013 1.5620003 c 0 0.01099968 -0.021999836 0.032999992 -0.032999992 0.032999992 c -0.37400007 -0.032999992 -1.5949998 -0.0880003 -2.4639997 -0.0880003 h -0.9460001 c -0.8469999 0 -2.145 0.055000305 -2.563 0.0880003 c -0.022000015 0 -0.044 -0.022000313 -0.044 -0.032999992 c -0.044 -0.49500036 -0.154 -1.0669999 -0.275 -1.5950003 c 0.11000001 -0.043999672 0.24200001 -0.05499983 0.374 -0.05499983 c 0.21999997 0.8800001 0.726 1.1659999 1.4519999 1.1659999 h 0.53900003 c 0.40700006 0 0.51699996 -0.41799974 0.51699996 -1.0889997 v -4.235 c 0 -0.913 -0.18700004 -0.968 -1.0669999 -1.001 c -0.066000104 -0.065999985 -0.066000104 -0.297 0 -0.36299998 c 0.53900003 0.011 1.0999999 0.022 1.54 0.022 c 0.41799998 0 0.9790001 -0.011 1.5289998 -0.022 c 0.065999985 0.066 0.065999985 0.297 0 0.36299998 c -0.87999964 0.033000022 -1.0669999 0.088 -1.0669999 1.001 Z "/>
        </symbol>
        <symbol id="gDFE5F3DA4EC55409D93A4F712A02872B" overflow="visible">
            <path d="M 0 0m 1.837 3.146 c 0 0.23100019 0.09899998 0.36300015 0.18699992 0.46200013 c 0.41799998 0.40699983 0.9790001 0.6489999 1.408 0.6489999 c 0.22000003 0 0.45099998 -0.14300013 0.58299994 -0.3959999 c 0.11000013 -0.22000003 0.13199997 -0.5170002 0.13199997 -0.8470001 v -1.6719999 c 0 -0.902 -0.10999966 -0.946 -0.6819999 -1.001 c -0.05499983 -0.065999985 -0.05499983 -0.297 0 -0.36299998 c 0.3080001 0.011 0.6819999 0.022 1.122 0.022 c 0.44000006 0 0.803 -0.011 1.1659999 -0.022 c 0.055000305 0.066 0.055000305 0.297 0 0.36299998 c -0.6159997 0.055000007 -0.737 0.09900001 -0.737 1.001 v 1.6389999 c 0 0.605 -0.043999672 1.144 -0.29699993 1.474 c -0.1869998 0.2420001 -0.5279999 0.37400007 -0.91299987 0.37400007 c -0.53900003 0 -1.1990001 -0.14300013 -1.87 -0.89100003 c 0 -0.010999918 -0.011000037 -0.010999918 -0.021999955 -0.022000074 c -0.032999992 -0.04399991 -0.08800006 -0.109999895 -0.08800006 0.022000074 l 0.011000037 2.4750001 c 0 0.7149997 0.04400003 1.1549997 0.04400003 1.1549997 c 0 0.07700014 -0.04400003 0.11000013 -0.143 0.11000013 c -0.2750001 -0.11000013 -1.1 -0.26399994 -1.5400001 -0.29699993 c -0.022 -0.0880003 0 -0.26399994 0.066 -0.32999992 c 0.032999992 0 0.065999985 0 0.09900001 0 c 0.484 -0.032999992 0.605 -0.032999992 0.605 -0.90199995 v -4.807 c 0 -0.913 -0.13200003 -0.957 -0.77 -1.001 c -0.066 -0.065999985 -0.066 -0.297 0 -0.36299998 c 0.36299998 0.011 0.77 0.022 1.21 0.022 c 0.41799998 0 0.7809999 -0.011 1.089 -0.022 c 0.065999985 0.066 0.065999985 0.297 0 0.36299998 c -0.561 0.044 -0.65999997 0.088 -0.65999997 1.001 Z "/>
        </symbol>
        <symbol id="g80723B9C0A918C3A8709DE0BC252F54C" overflow="visible">
            <path d="M 0 0m 1.9909999 1.342 v 2.189 c 0 0.54999995 0.04400015 1.254 0.04400015 1.254 c 0 0.04400015 -0.055000067 0.07700014 -0.14300013 0.07700014 c -0.30799997 -0.12099981 -0.7479999 -0.21999979 -1.507 -0.31900024 c -0.021999985 -0.065999985 0 -0.24199963 0.022000015 -0.3079996 c 0.60499996 -0.055000305 0.715 -0.12100029 0.715 -0.74800014 v -2.145 c 0 -0.913 -0.12099993 -0.946 -0.792 -1.001 c -0.065999985 -0.065999985 -0.065999985 -0.297 0 -0.36299998 c 0.36300004 0.011 0.792 0.022 1.2320001 0.022 c 0.44000006 0 0.85800004 -0.011 1.221 -0.022 c 0.065999985 0.066 0.065999985 0.297 0 0.36299998 c -0.671 0.044 -0.79200006 0.088 -0.79200006 1.001 Z m -1.0009999 5.2469997 c 0 -0.28599977 0.26399994 -0.57199955 0.528 -0.57199955 c 0.30799997 0 0.5719999 0.29699993 0.5719999 0.5279999 c 0 0.26399994 -0.23099995 0.572 -0.5279999 0.572 c -0.26400006 0 -0.572 -0.26399994 -0.572 -0.52800035 Z "/>
        </symbol>
        <symbol id="g9533FE3887B531C38C1C4562CDFC4009" overflow="visible">
            <path d="M 0 0m 0.528 1.518 c 0.04400003 -0.53900003 0.07700002 -1.056 0.07700002 -1.518 c 0.109999955 0.022 0.21999997 0.033 0.27499998 0.033 c 0.07700002 0 0.143 0 0.22000003 -0.022 c 0.29699993 -0.077 0.594 -0.121 1.001 -0.121 c 0.61599994 0 1.7489998 0.297 1.7489998 1.386 c 0 0.7479999 -0.53900003 1.188 -1.287 1.463 c -0.65999997 0.25300002 -1.1 0.41799998 -1.1 1.023 c 0 0.45099974 0.39600003 0.704 0.7700001 0.704 c 0.24199986 0 0.8799999 -0.0880003 1.023 -1.023 c 0.065999985 -0.065999985 0.286 -0.055000067 0.352 0.010999918 c 0.032999992 0.3959999 0.05499983 0.803 0.065999985 1.1659999 c -0.34100008 0.055000305 -0.86899996 0.20900011 -1.441 0.20900011 c -0.814 0 -1.5510001 -0.5279999 -1.5510001 -1.2320001 c 0 -0.803 0.36299998 -1.1439998 1.21 -1.4959998 c 0.9130001 -0.37400007 1.122 -0.605 1.122 -1.0780001 c 0 -0.53900003 -0.5279999 -0.77 -0.93499994 -0.77 c -0.42900002 0 -0.671 0.143 -0.781 0.26400003 c -0.24199998 0.25299996 -0.36299998 0.7369999 -0.42899996 1.0120001 c -0.066000044 0.065999985 -0.27500004 0.054999948 -0.34100002 -0.011000037 Z "/>
        </symbol>
        <symbol id="gFEB2F9519656D556FF30D38538E0F730" overflow="visible">
            <path d="M 0 0m 4.928 6.754 c 0.8140001 -0.055000305 0.8140001 -0.35200024 0.5830002 -0.9460001 l -1.7380002 -4.4110003 h -0.04399991 l -1.7600001 4.477 c -0.25300002 0.65999985 -0.18700004 0.803 0.561 0.8800001 c 0.065999985 0.065999985 0.065999985 0.29699993 0 0.36299992 c -0.44000006 -0.011000156 -0.93499994 -0.022000313 -1.331 -0.022000313 c -0.39600003 0 -0.781 0.011000156 -1.144 0.022000313 c -0.066 -0.065999985 -0.055 -0.29699993 0.011 -0.36299992 c 0.605 -0.055000305 0.693 -0.2420001 0.99 -1.0010004 l 2.167 -5.632 c 0.065999985 -0.176 0.14299989 -0.253 0.25300002 -0.253 c 0.12099981 0 0.19799995 0.099 0.26399994 0.253 l 2.2770002 5.61 c 0.20899963 0.5170002 0.38499975 0.9460001 1.0779996 1.0230002 c 0.065999985 0.065999985 0.065999985 0.29699993 0 0.36299992 c -0.32999992 -0.011000156 -0.7149997 -0.022000313 -0.96799994 -0.022000313 c -0.25299978 0 -0.74799967 0.011000156 -1.1989999 0.022000313 c -0.065999985 -0.065999985 -0.065999985 -0.29699993 0 -0.36299992 Z "/>
        </symbol>
        <symbol id="gECFF754D7B3D24CA2147247AFEC52B43" overflow="visible">
            <path d="M 0 0m 3.223 0.528 c 0.065999985 -0.341 0.18700004 -0.638 0.737 -0.638 c 0.41799974 0 0.8140001 0.187 1.0450001 0.407 c -0.022000313 0.132 -0.065999985 0.231 -0.18700027 0.297 c -0.076999664 -0.065999985 -0.26399994 -0.176 -0.40700006 -0.176 c -0.31899977 0 -0.32999992 0.42900002 -0.32999992 0.93500006 v 1.617 c 0 1.562 -0.8579998 1.859 -1.6609998 1.859 c -0.90200007 0 -1.815 -0.59399986 -1.815 -1.221 c 0 -0.26400018 0.13199997 -0.39600015 0.385 -0.39600015 c 0.319 0 0.51699996 0.23100019 0.51699996 0.37400007 c 0 0.0769999 -0.010999918 0.15400004 -0.032999992 0.19799995 c -0.011000037 0.032999992 -0.021999955 0.09899998 -0.021999955 0.22000027 c 0 0.3409996 0.462 0.4619999 0.88 0.4619999 c 0.37400007 0 0.89100003 -0.18700027 0.89100003 -1.4300001 c 0 -0.07700014 -0.032999992 -0.12100005 -0.065999985 -0.13199997 l -0.9460001 -0.23099995 c -1.056 -0.26400018 -1.8149999 -0.8470001 -1.8149999 -1.5950001 c 0 -0.90199995 0.61599994 -1.188 1.3859999 -1.188 c 0.3850001 0 0.71500003 0.088 1.199 0.462 l 0.22000003 0.176 Z m 0 2.0349998 v -1.452 c 0 -0.14299995 -0.065999985 -0.21999997 -0.15400004 -0.28599995 c -0.286 -0.231 -0.6600001 -0.484 -0.96799994 -0.484 c -0.5500001 0 -0.79200006 0.44000003 -0.79200006 0.781 c 0 0.495 0.23099995 1.0009999 1.0450001 1.21 Z "/>
        </symbol>
        <symbol id="g6ACFF760A35DA6D4BC5F52E32B96F2BE" overflow="visible">
            <path d="M 0 0m 2.233 4.378 c 0.065999985 0.065999985 0.065999985 0.2970004 0 0.3630004 c -0.33000004 -0.011000156 -0.71500003 -0.022000313 -1.1110001 -0.022000313 c -0.41799998 0 -0.715 0.011000156 -1.0009999 0.022000313 c -0.066 -0.065999985 -0.066 -0.2970004 0 -0.3630004 c 0.517 -0.05499983 0.638 -0.16499996 0.869 -0.73699975 l 1.441 -3.553 c 0.065999985 -0.154 0.15400004 -0.22 0.26399994 -0.22 c 0.09899998 0 0.18700004 0.066 0.26399994 0.242 l 1.1110003 2.706 l 1.1329999 -2.728 c 0.065999985 -0.154 0.1539998 -0.22 0.26399994 -0.22 c 0.09899998 0 0.1869998 0.066 0.25299978 0.231 l 1.441 3.487 c 0.17600012 0.4510002 0.3630004 0.7589998 0.92400026 0.7919998 c 0.065999985 0.065999985 0.065999985 0.2970004 0 0.3630004 c -0.22000027 -0.011000156 -0.4619999 -0.022000313 -0.7920003 -0.022000313 c -0.32999992 0 -0.7919998 0.011000156 -1.1219997 0.022000313 c -0.065999985 -0.065999985 -0.065999985 -0.2970004 0 -0.3630004 c 0.8249998 -0.043999672 0.71500015 -0.36299992 0.5609999 -0.7479999 l -0.9239998 -2.2879999 c -0.11000013 -0.27499998 -0.15400028 -0.27499998 -0.2420001 -0.04400003 l -0.9460001 2.409 c -0.20900011 0.51699996 -0.1869998 0.6270001 0.3959999 0.67099977 c 0.065999985 0.065999985 0.065999985 0.2970004 0 0.3630004 c -0.32999992 -0.011000156 -0.77 -0.022000313 -1.0999999 -0.022000313 c -0.27499986 0 -0.638 0.011000156 -0.96799994 0.022000313 c -0.065999985 -0.065999985 -0.065999985 -0.2970004 0 -0.3630004 c 0.51699996 -0.043999672 0.6489999 -0.36299992 0.8470001 -0.8579998 l 0.065999985 -0.17600012 l -0.77 -1.9469999 c -0.14300013 -0.36299992 -0.1650002 -0.37399995 -0.3080001 -0.021999955 l -0.88 2.266 c -0.20899999 0.5280001 -0.19799995 0.70399976 0.33000004 0.73699975 Z "/>
        </symbol>
        <symbol id="gE8B08BB0E494C01E08CB3EE0FE93D76A" overflow="visible">
            <path d="M 0 0m 2.387 -0.11 c 0.4289999 0 0.94599986 0.22 1.4849999 0.66 c 0.055000067 0.04399997 0.15400004 0.065999985 0.1650002 -0.011000037 c 0.032999992 -0.27499998 0.12099981 -0.649 0.12099981 -0.649 c 0.08799982 -0.033000007 0.14300013 -0.022 0.20900011 0 c 0.2420001 0.198 0.62699986 0.36299998 1.2979999 0.44 c 0.065999985 0.066000015 0.065999985 0.231 0 0.297 c -0.704 0.055000007 -0.803 0.264 -0.803 0.803 v 2.112 c 0 0.32999992 0.04400015 1.1330001 0.04400015 1.1330001 c 0 0.032999992 -0.032999992 0.065999985 -0.0880003 0.065999985 c -0.05499983 -0.011000156 -0.21999979 -0.022000313 -0.38499975 -0.022000313 c -0.35200024 0 -0.74800014 0.011000156 -1.1220002 0.022000313 c -0.065999985 -0.065999985 -0.065999985 -0.2970004 0 -0.3630004 c 0.53900003 -0.032999992 0.68200016 -0.16499996 0.68200016 -0.8909998 v -2.1230001 c 0 -0.20899999 -0.022000074 -0.29699993 -0.17600012 -0.42899996 c -0.40699983 -0.352 -0.8249998 -0.528 -1.0999999 -0.528 c -0.32999992 0 -0.88 0.15399998 -0.88 1.1329999 v 2.002 c 0 0.32999992 0.04400003 1.1330001 0.04400003 1.1330001 c 0 0.032999992 -0.032999992 0.065999985 -0.08800006 0.065999985 c -0.054999948 -0.011000156 -0.22000003 -0.022000313 -0.385 -0.022000313 c -0.352 0 -0.748 0.011000156 -1.122 0.022000313 c -0.066000015 -0.065999985 -0.066000015 -0.2970004 0 -0.3630004 c 0.528 -0.043999672 0.682 -0.16499996 0.682 -0.8799999 v -2.112 c 0 -0.75900006 0.32999998 -1.496 1.4190001 -1.496 Z "/>
        </symbol>
        <symbol id="gC1A56354AB16CA354F140BD2C6EDE55" overflow="visible">
            <path d="M 0 0m 4.884 4.257 c 0.20900011 0 0.40700006 0.19799995 0.40700006 0.41800022 c 0 0.23099995 -0.20900011 0.4069996 -0.50600004 0.4069996 c -0.28599977 0 -0.8139999 -0.1869998 -1.0999999 -0.5609999 c -0.13199997 0.0880003 -0.4949999 0.3080001 -1.144 0.3080001 c -0.97899985 0 -1.8809999 -0.65999985 -1.8809999 -1.6719999 c 0 -0.5940001 0.26400006 -0.9350002 0.572 -1.2320001 c -0.30799997 -0.26399994 -0.48399997 -0.737 -0.48399997 -1.111 c 0 -0.39600003 0.21999997 -0.704 0.5059999 -0.847 c -0.594 -0.352 -0.90199995 -0.858 -0.90199995 -1.331 c 0 -0.95700014 0.90199995 -1.2540001 1.7490001 -1.2540001 c 1.4849999 0 3.0909998 0.71500003 3.0909998 1.9030001 c 0 0.35199997 -0.16499996 0.627 -0.48399973 0.891 c -0.42900038 0.352 -1.1990001 0.36299998 -1.6060002 0.36299998 c -0.19799995 0 -0.47300005 -0.021999955 -0.737 -0.054999977 c -0.16499996 -0.011000007 -0.2750001 -0.021999985 -0.32999992 -0.021999985 c -0.31900012 0 -0.7040001 0.15399998 -0.7040001 0.627 c 0 0.22000003 0.065999985 0.45099998 0.19800007 0.638 c 0.26399994 -0.15400004 0.572 -0.23099995 1.0009999 -0.23099995 c 0.96799994 0 1.859 0.605 1.859 1.6829998 c 0 0.5170002 -0.1539998 0.8140001 -0.47300005 1.144 c 0.07700014 0.11000013 0.29699993 0.26399994 0.44000006 0.26399994 c 0.07700014 0 0.1539998 -0.032999992 0.22000027 -0.13199997 c 0.043999672 -0.08799982 0.1869998 -0.19799995 0.3079996 -0.19799995 Z m -3.4319997 -4.367 c 0.12099993 -0.033000007 0.29699993 -0.054999992 0.43999994 -0.054999992 c 0.34100008 0 0.6489999 0.032999992 0.803 0.032999992 c 0.54999995 0 1.0120001 -0.011000007 1.3310001 -0.187 c 0.4289999 -0.24199998 0.5609999 -0.39599997 0.5609999 -0.68200004 c 0 -0.79199994 -1.1659999 -1.2099999 -2.156 -1.2099999 c -0.3959999 0 -1.32 0.319 -1.32 1.0669999 c 0 0.37400007 0.022000074 0.64900005 0.34100008 1.034 Z m 2.0570002 3.179 c 0 -1.023 -0.51699996 -1.232 -0.924 -1.232 c -0.924 0 -1.023 0.781 -1.023 1.485 c 0 0.77 0.27499998 1.1659999 0.8799999 1.1659999 c 0.6930001 0 1.0670002 -0.50600004 1.0670002 -1.4189999 Z "/>
        </symbol>
    </defs>
</svg>
